<svg width="163" height="40" viewBox="0 0 163 40" fill="none" xmlns="http://www.w3.org/2000/svg">
<path d="M22.2576 14.549C21.949 14.427 21.6175 14.3125 21.2821 14.1905C19.3082 13.4926 17.2696 12.7719 17.7764 10.7507C18.2298 8.93168 20.2876 7.98211 22.0823 7.98211C24.3496 7.98211 26.4988 9.07659 28.6442 11.3228L28.8919 11.5821L35.869 4.92748L35.6061 4.6796C32.1804 1.48387 28.5908 0.0576172 23.961 0.0576172C17.7726 0.0576172 10.2695 3.42114 8.4214 10.8079C6.61899 18.004 11.0698 20.521 15.7834 22.4811L16.0502 22.5879C18.9462 23.751 21.6822 24.8455 21.0459 27.3853C20.3676 30.0929 17.5554 31.0539 15.3529 31.0539C11.607 31.0539 10.0523 29.1738 7.89934 26.5768L7.59069 26.2031L0 32.1865L0.209582 32.4687C3.50193 36.9458 7.64785 39.028 13.2532 39.028C20.3561 39.028 28.9262 35.3327 30.9572 27.2251C33.1102 18.6295 26.5788 16.1697 22.2576 14.5452V14.549Z" fill="white"/>
<path d="M52.1403 28.3844C50.536 30.2187 48.1544 31.0539 46.592 31.0539C45.567 31.0539 44.2828 30.7564 44.0085 29.3378C43.7455 27.9878 44.2714 25.9018 44.7325 24.0599L48.4287 9.29776H39.0852L35.3089 24.3764C34.3296 28.2853 33.5865 32.053 35.2365 35.1344C36.6121 37.575 39.0814 39.028 41.8517 39.028C43.8332 39.028 47.5828 38.5208 51.2257 35.2602L51.0771 38.3949H58.9764L66.2623 9.29395H56.9187L52.1403 28.3768V28.3844Z" fill="white"/>
<path d="M88.1809 8.66406C86.1994 8.66406 82.4498 9.17126 78.8068 12.4318L78.9554 9.29711H71.0561L63.7703 38.3981H73.1138L77.8923 19.3152C79.4966 17.4809 81.8782 16.6458 83.4405 16.6458C84.4694 16.6458 85.7497 16.9432 86.0241 18.3618C86.287 19.7118 85.7612 21.7978 85.3001 23.6398L81.6038 38.4019H90.9474L94.7237 23.3232C95.703 19.4144 96.446 15.6504 94.7961 12.5653C93.4242 10.1246 90.9512 8.67169 88.1809 8.67169V8.66406Z" fill="white"/>
<path d="M99.1819 26.359H115.384L117.328 18.5908H101.125L99.1819 26.359Z" fill="white"/>
<path d="M160.689 39.9997H148.899L146.658 37.0328L146.628 37.0519C143.579 38.3675 140.462 39.0311 137.345 39.0311C131.622 39.0311 126.614 36.6515 123.913 32.3155C119.816 25.7486 121.6 15.4979 129.343 8.85091C131.442 7.05474 133.839 5.67044 136.339 4.80858C140.428 3.39376 144.623 4.01537 146.91 6.74203C147.192 7.08525 147.451 7.45516 147.672 7.84796C147.672 7.84796 147.938 8.32846 148.125 8.75557C147.222 8.39329 146.197 8.19117 145.065 8.19117C139.361 8.19117 133.847 13.061 132.231 19.5135C130.616 25.9736 133.691 30.8435 139.395 30.8435C140.184 30.8435 140.996 30.7481 141.765 30.5689C141.769 30.5498 138.172 25.7791 138.172 25.7791H144.749C148.087 25.7791 150.96 27.0986 152.736 29.4515L160.685 39.9959L160.689 39.9997Z" fill="white"/>
<path d="M162.11 19.5138C161.207 23.1252 159.321 26.6374 156.695 29.6844L155.098 27.5679C153.879 25.9472 152.256 24.7383 150.339 23.9947C151.2 22.5798 151.848 21.0659 152.237 19.5138L152.244 19.4871C153.666 13.7554 152.587 8.67194 149.752 5.48003C149.752 5.48003 149.748 5.4724 149.741 5.4724C149.615 5.32749 149.482 5.18257 149.344 5.05291C149.261 4.9652 149.158 4.86986 149.04 4.7669C147.893 3.6953 146.509 2.90209 144.936 2.45209C143.03 1.82668 140.55 1.51397 137.478 2.10888C140.531 0.755077 143.815 0 147.123 0C158.261 0 164.846 8.57279 162.106 19.5138H162.11Z" fill="#E83830"/>
</svg>
